<?xml version="1.0" encoding="UTF-8" standalone="no"?>
<!-- Created with Inkscape (http://www.inkscape.org/) -->

<svg
   width="512"
   height="512"
   viewBox="0 0 512 512"
   version="1.1"
   id="svg5"
   inkscape:version="1.4 (e7c3feb100, 2024-10-09)"
   sodipodi:docname="sad-pigeon.svg"
   inkscape:export-filename="D:\Vinicius\IFTM\Disciplinas\01-PDM\enunciados\TFC\TFC02\img\logo2.png"
   inkscape:export-xdpi="96"
   inkscape:export-ydpi="96"
   xmlns:inkscape="http://www.inkscape.org/namespaces/inkscape"
   xmlns:sodipodi="http://sodipodi.sourceforge.net/DTD/sodipodi-0.dtd"
   xmlns="http://www.w3.org/2000/svg"
   xmlns:svg="http://www.w3.org/2000/svg">
  <sodipodi:namedview
     id="namedview7"
     pagecolor="#ffffff"
     bordercolor="#666666"
     borderopacity="1.0"
     inkscape:pageshadow="2"
     inkscape:pageopacity="0.0"
     inkscape:pagecheckerboard="0"
     inkscape:document-units="px"
     showgrid="false"
     inkscape:snap-bbox="true"
     inkscape:snap-bbox-midpoints="true"
     showguides="true"
     inkscape:guide-bbox="true"
     inkscape:zoom="1"
     inkscape:cx="62"
     inkscape:cy="226"
     inkscape:window-width="1920"
     inkscape:window-height="1011"
     inkscape:window-x="1920"
     inkscape:window-y="32"
     inkscape:window-maximized="1"
     inkscape:current-layer="layer1"
     inkscape:showpageshadow="2"
     inkscape:deskcolor="#d1d1d1" />
  <defs
     id="defs2" />
  <g
     inkscape:label="Camada 1"
     inkscape:groupmode="layer"
     id="layer1">
    <g
       id="g7891"
       transform="matrix(1.2062756,-0.78540227,0.78540227,1.2062756,-480.02498,443.40897)">
      <circle
         style="fill:#504416;fill-opacity:1;stroke:#070707;stroke-width:0;stroke-linecap:round;stroke-linejoin:round;stroke-miterlimit:4;stroke-dasharray:none;stroke-dashoffset:500"
         id="path2674"
         cx="513.79407"
         cy="134.39949"
         r="80" />
      <path
         id="rect2926"
         style="fill:#6c6753;stroke:#070707;stroke-width:0;stroke-linecap:round;stroke-linejoin:round;stroke-dashoffset:500"
         d="m 434.17133,142.18701 159.4915,-10.84196 c 3.37089,21.14047 -15.69024,61.16431 -4.83504,97.84218 l 8.41201,36.66949 c -28.56011,23.98726 -38.08931,9.84223 -65.46597,8.00235 -27.82704,-4.64153 -71.36619,6.04813 -93.97152,21.42317 5.5118,-35.08218 17.0237,-55.49827 12.96237,-80.88288 -4.35143,-33.63171 -16.44723,-59.90819 -16.59335,-72.21235 z"
         sodipodi:nodetypes="cccccccc" />
      <path
         id="rect5962"
         style="fill:#916f6f;stroke:#070707;stroke-width:0;stroke-linecap:round;stroke-linejoin:round;stroke-dashoffset:500"
         d="m 381.75668,191.73721 56.43985,-30.67343 c 7.92885,17.57902 11.28621,35.64968 12.68792,53.66385 l -64.05234,-6.80534 c -11.10177,-0.66285 -11.16179,-11.44276 -5.07543,-16.18508 z"
         sodipodi:nodetypes="ccccc" />
      <g
         id="g11353"
         transform="rotate(11.230916,-440.83178,1668.1019)">
        <path
           id="rect9266"
           style="stroke:#070707;stroke-width:0;stroke-linecap:round;stroke-linejoin:round;stroke-dashoffset:500"
           d="m 100.83183,-53.081204 175.42638,0.42752 -1.71008,11.945382 -195.09229,0.85504 c 0,0 8.265377,-10.101187 21.37599,-13.227942 z"
           sodipodi:nodetypes="ccccc" />
        <path
           id="rect9392"
           style="fill:#2a7fff;stroke:#070707;stroke-width:0;stroke-linecap:round;stroke-linejoin:round;stroke-dashoffset:500"
           d="m 102.13218,-99.812813 c 26.40105,-28.013327 74.56785,-2.216877 174.12602,-7.255247 v 54.414372 H 122.68872 c 0,-10.278275 -2.41842,-28.617932 -20.55654,-47.159125 z"
           sodipodi:nodetypes="ccccc" />
        <path
           id="rect9584"
           style="fill:#ffff00;stroke:#070707;stroke-width:0;stroke-linecap:round;stroke-linejoin:round;stroke-dashoffset:500"
           d="m 121.78181,-63.234265 154.47639,0.302302 v 10.278272 H 122.68872 c -0.3023,-3.678009 -0.0756,-6.14681 -0.90691,-10.580574 z"
           sodipodi:nodetypes="ccccc" />
      </g>
    </g>
    <ellipse
       style="fill:#000000;fill-opacity:1;stroke:#070707;stroke-width:0;stroke-linecap:round;stroke-linejoin:round;stroke-miterlimit:4;stroke-dasharray:none;stroke-dashoffset:500"
       id="path7915"
       cx="38.106911"
       cy="336.77698"
       rx="22.627417"
       ry="20.886847"
       transform="rotate(-33.068025)" />
    <ellipse
       style="fill:#e6e6e6;fill-opacity:1;stroke:#070707;stroke-width:0;stroke-linecap:round;stroke-linejoin:round;stroke-miterlimit:4;stroke-dasharray:none;stroke-dashoffset:500"
       id="path34624"
       cx="49.730873"
       cy="331.50732"
       rx="6.7692308"
       ry="6.1538463"
       transform="rotate(-33.068025)" />
    <path
       id="path1"
       style="font-variation-settings:'wght' 700;fill:#00c0ff;stroke:#ffffff;stroke-width:0;stroke-linecap:round;stroke-linejoin:round;stroke-miterlimit:3.5;stroke-dashoffset:40.08;stroke-opacity:0.633862;paint-order:markers fill stroke"
       d="m 222.87266,304.73607 c 0,5.0728 -3.21508,9.18512 -7.18108,9.18512 -3.96601,0 -7.18109,-4.11232 -7.18109,-9.18512 0,-5.07279 7.42022,-22.55353 6.82682,-18.63217 -0.87561,5.78633 7.53535,13.55938 7.53535,18.63217 z"
       sodipodi:nodetypes="sssss" />
    <path
       id="ellipse1"
       style="fill:#00c0ff;fill-opacity:0.763738;stroke:#070707;stroke-width:0;stroke-linecap:round;stroke-linejoin:round;stroke-dashoffset:500"
       transform="rotate(-33.068025)"
       d="m 45.72986,353.37915 c 11.462616,1.2945 -1.50265,6.10825 -6.236556,5.93315 -3.797786,-0.14047 -26.344836,-5.35786 -26.34484,-16.89334 -2e-6,-11.53549 6.546508,-10.92108 5.74384,-7.44724 -2.154088,9.32257 16.121263,17.19721 26.837556,18.40743 z"
       sodipodi:nodetypes="sssss" />
  </g>
</svg>
